<?xml version="1.0" encoding="UTF-8"?>
<svg xmlns="http://www.w3.org/2000/svg" xmlns:xlink="http://www.w3.org/1999/xlink" viewBox="0 0 64 64" width="64px" height="64px">
<g id="surface109526069">
<path style=" stroke:none;fill-rule:nonzero;fill:white" d="M 59.226562 0.820312 L 4.78125 0.820312 C 2.59375 0.820312 0.820312 2.59375 0.820312 4.78125 L 0.820312 59.21875 C 0.820312 61.40625 2.59375 63.179688 4.78125 63.179688 L 59.21875 63.179688 C 61.40625 63.179688 63.179688 61.40625 63.179688 59.226562 L 63.179688 4.78125 C 63.179688 2.59375 61.40625 0.820312 59.226562 0.820312 Z M 34.96875 48.605469 C 34.96875 54.539062 31.488281 57.242188 26.410156 57.242188 C 21.816406 57.242188 18.503906 54.160156 17.152344 51.300781 L 21.820312 48.476562 C 22.71875 50.074219 24.089844 51.300781 26.0625 51.300781 C 27.945312 51.300781 29.03125 50.566406 29.03125 47.699219 L 29.03125 29.03125 L 34.96875 29.03125 Z M 47.851562 57.242188 C 42.589844 57.242188 39.605469 54.589844 37.9375 51.300781 L 42.394531 48.332031 C 43.605469 50.316406 44.929688 52.214844 47.722656 52.214844 C 50.074219 52.214844 51.300781 51.042969 51.300781 49.417969 C 51.300781 47.480469 50.027344 46.789062 47.445312 45.660156 L 46.03125 45.050781 C 41.941406 43.308594 39.222656 41.128906 39.222656 36.511719 C 39.222656 32.265625 42.464844 29.03125 47.519531 29.03125 C 51.121094 29.03125 53.710938 30.28125 55.578125 33.566406 L 51.167969 36.402344 C 50.195312 34.65625 49.152344 33.972656 47.519531 33.972656 C 45.863281 33.972656 44.8125 35.027344 44.8125 36.402344 C 44.8125 38.101562 45.863281 38.785156 48.292969 39.839844 L 49.707031 40.449219 C 54.527344 42.507812 57.242188 44.613281 57.242188 49.347656 C 57.242188 54.445312 53.234375 57.242188 47.851562 57.242188 Z M 47.851562 57.242188 "/>
</g>
</svg>
