<?xml version="1.0" encoding="UTF-8"?>
<svg xmlns="http://www.w3.org/2000/svg" xmlns:xlink="http://www.w3.org/1999/xlink" viewBox="0 0 64 64" width="64px" height="64px">
<g id="surface109521548">
<path style=" stroke:none;fill-rule:nonzero;fill:white" d="M 61.183594 1.355469 L 2.816406 1.355469 C 2.007812 1.355469 1.355469 2.011719 1.355469 2.816406 L 1.355469 61.183594 C 1.355469 61.988281 2.007812 62.644531 2.816406 62.644531 L 61.183594 62.644531 C 61.992188 62.644531 62.644531 61.988281 62.644531 61.183594 L 62.644531 2.816406 C 62.644531 2.011719 61.992188 1.355469 61.183594 1.355469 Z M 37.835938 34.109375 L 30.539062 34.109375 L 30.539062 56.804688 L 24.703125 56.804688 L 24.703125 34.109375 L 17.40625 34.109375 L 17.40625 29.082031 L 37.835938 29.082031 Z M 39.472656 55.511719 L 39.472656 49.441406 C 39.472656 49.441406 42.785156 51.941406 46.761719 51.941406 C 50.738281 51.941406 50.585938 49.339844 50.585938 48.984375 C 50.585938 45.210938 39.320312 45.210938 39.320312 36.851562 C 39.320312 25.484375 55.734375 29.96875 55.734375 29.96875 L 55.53125 35.375 C 55.53125 35.375 52.777344 33.539062 49.667969 33.539062 C 46.558594 33.539062 45.4375 35.015625 45.4375 36.597656 C 45.4375 40.675781 56.804688 40.269531 56.804688 48.476562 C 56.804688 61.117188 39.472656 55.511719 39.472656 55.511719 Z M 39.472656 55.511719 "/>
</g>
</svg>
